<mxfile host="app.diagrams.net" modified="2023-11-22T09:32:20.312Z" agent="Mozilla/5.0 (Windows NT 10.0; Win64; x64; rv:109.0) Gecko/20100101 Firefox/119.0" etag="Lhsv-BrRCXOPGApnAvUz" version="22.1.3" type="github">
  <diagram name="Page-1" id="swX_OmcifyCcQ__FE-wy">
    <mxGraphModel dx="1407" dy="1155" grid="1" gridSize="10" guides="1" tooltips="1" connect="1" arrows="1" fold="1" page="1" pageScale="1" pageWidth="850" pageHeight="1100" math="0" shadow="0">
      <root>
        <mxCell id="0" />
        <mxCell id="1" parent="0" />
        <mxCell id="JxlkaKrIeEIBKMhmb0Ot-1" value="&lt;div&gt;AZURE Functions&amp;nbsp;&lt;/div&gt;&lt;div&gt;App1&lt;br&gt;&lt;/div&gt;" style="rounded=0;whiteSpace=wrap;html=1;fillColor=#ffe6cc;strokeColor=#d79b00;" parent="1" vertex="1">
          <mxGeometry x="160" y="310" width="240" height="40" as="geometry" />
        </mxCell>
        <mxCell id="JxlkaKrIeEIBKMhmb0Ot-2" value="Central" style="rounded=0;whiteSpace=wrap;html=1;fillColor=#d5e8d4;strokeColor=#82b366;" parent="1" vertex="1">
          <mxGeometry x="160" y="350" width="240" height="30" as="geometry" />
        </mxCell>
        <mxCell id="JxlkaKrIeEIBKMhmb0Ot-3" value="&lt;div&gt;AZURE Functions&lt;/div&gt;&amp;nbsp;App2" style="rounded=0;whiteSpace=wrap;html=1;fillColor=#ffe6cc;strokeColor=#d79b00;" parent="1" vertex="1">
          <mxGeometry x="520" y="310" width="240" height="40" as="geometry" />
        </mxCell>
        <mxCell id="JxlkaKrIeEIBKMhmb0Ot-4" value="Database" style="rounded=0;whiteSpace=wrap;html=1;fillColor=#dae8fc;strokeColor=#6c8ebf;" parent="1" vertex="1">
          <mxGeometry x="520" y="350" width="240" height="30" as="geometry" />
        </mxCell>
        <mxCell id="JxlkaKrIeEIBKMhmb0Ot-5" value="" style="rounded=0;whiteSpace=wrap;html=1;" parent="1" vertex="1">
          <mxGeometry x="160" y="380" width="240" height="240" as="geometry" />
        </mxCell>
        <mxCell id="JxlkaKrIeEIBKMhmb0Ot-6" value="@Connect" style="rounded=0;whiteSpace=wrap;html=1;fillColor=#e1d5e7;strokeColor=#9673a6;" parent="1" vertex="1">
          <mxGeometry x="180" y="410" width="130" height="20" as="geometry" />
        </mxCell>
        <mxCell id="JxlkaKrIeEIBKMhmb0Ot-8" value="@Disconnected" style="rounded=0;whiteSpace=wrap;html=1;fillColor=#e1d5e7;strokeColor=#9673a6;" parent="1" vertex="1">
          <mxGeometry x="180" y="440" width="130" height="20" as="geometry" />
        </mxCell>
        <mxCell id="JxlkaKrIeEIBKMhmb0Ot-9" value="@Message" style="rounded=0;whiteSpace=wrap;html=1;fillColor=#fff2cc;strokeColor=#d6b656;" parent="1" vertex="1">
          <mxGeometry x="180" y="480" width="130" height="20" as="geometry" />
        </mxCell>
        <mxCell id="JxlkaKrIeEIBKMhmb0Ot-10" value="handle message" style="rounded=0;whiteSpace=wrap;html=1;" parent="1" vertex="1">
          <mxGeometry x="180" y="500" width="130" height="60" as="geometry" />
        </mxCell>
        <mxCell id="JxlkaKrIeEIBKMhmb0Ot-11" value="" style="rounded=0;whiteSpace=wrap;html=1;" parent="1" vertex="1">
          <mxGeometry x="520" y="380" width="240" height="240" as="geometry" />
        </mxCell>
        <mxCell id="JxlkaKrIeEIBKMhmb0Ot-12" style="edgeStyle=orthogonalEdgeStyle;rounded=0;orthogonalLoop=1;jettySize=auto;html=1;exitX=1;exitY=0.5;exitDx=0;exitDy=0;entryX=-0.021;entryY=0.625;entryDx=0;entryDy=0;entryPerimeter=0;" parent="1" source="JxlkaKrIeEIBKMhmb0Ot-10" target="JxlkaKrIeEIBKMhmb0Ot-11" edge="1">
          <mxGeometry relative="1" as="geometry" />
        </mxCell>
        <mxCell id="JxlkaKrIeEIBKMhmb0Ot-13" value="async http request" style="rounded=0;whiteSpace=wrap;html=1;" parent="1" vertex="1">
          <mxGeometry x="410" y="485" width="90" height="30" as="geometry" />
        </mxCell>
        <mxCell id="JxlkaKrIeEIBKMhmb0Ot-14" value="@Table1 querry1" style="rounded=0;whiteSpace=wrap;html=1;fillColor=#fff2cc;strokeColor=#d6b656;" parent="1" vertex="1">
          <mxGeometry x="590" y="440" width="130" height="20" as="geometry" />
        </mxCell>
        <mxCell id="JxlkaKrIeEIBKMhmb0Ot-15" value="@Table1 querry2" style="rounded=0;whiteSpace=wrap;html=1;fillColor=#fff2cc;strokeColor=#d6b656;" parent="1" vertex="1">
          <mxGeometry x="591" y="470" width="130" height="20" as="geometry" />
        </mxCell>
        <mxCell id="JxlkaKrIeEIBKMhmb0Ot-19" value="@Table2 querry1" style="rounded=0;whiteSpace=wrap;html=1;fillColor=#fff2cc;strokeColor=#d6b656;" parent="1" vertex="1">
          <mxGeometry x="591" y="500" width="130" height="20" as="geometry" />
        </mxCell>
        <mxCell id="JxlkaKrIeEIBKMhmb0Ot-20" value="@Table2 querry2" style="rounded=0;whiteSpace=wrap;html=1;fillColor=#fff2cc;strokeColor=#d6b656;" parent="1" vertex="1">
          <mxGeometry x="591" y="530" width="130" height="20" as="geometry" />
        </mxCell>
        <mxCell id="JxlkaKrIeEIBKMhmb0Ot-21" value="" style="endArrow=classic;html=1;rounded=0;entryX=1;entryY=0.75;entryDx=0;entryDy=0;exitX=-0.005;exitY=0.696;exitDx=0;exitDy=0;exitPerimeter=0;" parent="1" source="JxlkaKrIeEIBKMhmb0Ot-11" target="JxlkaKrIeEIBKMhmb0Ot-10" edge="1">
          <mxGeometry width="50" height="50" relative="1" as="geometry">
            <mxPoint x="470" y="590" as="sourcePoint" />
            <mxPoint x="530" y="520" as="targetPoint" />
          </mxGeometry>
        </mxCell>
        <mxCell id="JxlkaKrIeEIBKMhmb0Ot-24" value="&lt;div&gt;Cosmos DB&lt;/div&gt;&lt;div&gt;serverless&lt;br&gt;&lt;/div&gt;" style="shape=cylinder3;whiteSpace=wrap;html=1;boundedLbl=1;backgroundOutline=1;size=15;fillColor=#dae8fc;strokeColor=#6c8ebf;" parent="1" vertex="1">
          <mxGeometry x="585" y="680" width="110" height="80" as="geometry" />
        </mxCell>
        <mxCell id="JxlkaKrIeEIBKMhmb0Ot-26" value="" style="endArrow=classic;html=1;rounded=0;" parent="1" edge="1">
          <mxGeometry width="50" height="50" relative="1" as="geometry">
            <mxPoint x="620" y="620" as="sourcePoint" />
            <mxPoint x="620" y="680" as="targetPoint" />
          </mxGeometry>
        </mxCell>
        <mxCell id="JxlkaKrIeEIBKMhmb0Ot-29" value="" style="endArrow=classic;html=1;rounded=0;" parent="1" edge="1">
          <mxGeometry width="50" height="50" relative="1" as="geometry">
            <mxPoint x="649.66" y="680" as="sourcePoint" />
            <mxPoint x="649.66" y="620" as="targetPoint" />
          </mxGeometry>
        </mxCell>
        <mxCell id="JxlkaKrIeEIBKMhmb0Ot-30" value="Pub Sub" style="rounded=1;whiteSpace=wrap;html=1;fillColor=#fff2cc;strokeColor=#d6b656;" parent="1" vertex="1">
          <mxGeometry x="220" y="200" width="120" height="60" as="geometry" />
        </mxCell>
        <mxCell id="JxlkaKrIeEIBKMhmb0Ot-33" value="" style="shape=flexArrow;endArrow=classic;startArrow=classic;html=1;rounded=0;exitX=0.5;exitY=0;exitDx=0;exitDy=0;" parent="1" source="JxlkaKrIeEIBKMhmb0Ot-30" edge="1">
          <mxGeometry width="100" height="100" relative="1" as="geometry">
            <mxPoint x="180" y="220" as="sourcePoint" />
            <mxPoint x="280" y="120" as="targetPoint" />
          </mxGeometry>
        </mxCell>
        <mxCell id="JxlkaKrIeEIBKMhmb0Ot-35" value="Charging Station" style="rounded=0;whiteSpace=wrap;html=1;fillColor=#d5e8d4;strokeColor=#82b366;" parent="1" vertex="1">
          <mxGeometry x="220" y="60" width="120" height="60" as="geometry" />
        </mxCell>
        <mxCell id="JxlkaKrIeEIBKMhmb0Ot-36" value="" style="endArrow=classic;html=1;rounded=0;exitX=0.409;exitY=1.05;exitDx=0;exitDy=0;exitPerimeter=0;entryX=0.453;entryY=0.011;entryDx=0;entryDy=0;entryPerimeter=0;" parent="1" source="JxlkaKrIeEIBKMhmb0Ot-30" target="JxlkaKrIeEIBKMhmb0Ot-1" edge="1">
          <mxGeometry width="50" height="50" relative="1" as="geometry">
            <mxPoint x="269.65999999999997" y="270" as="sourcePoint" />
            <mxPoint x="270" y="320" as="targetPoint" />
          </mxGeometry>
        </mxCell>
        <mxCell id="JxlkaKrIeEIBKMhmb0Ot-37" value="" style="endArrow=classic;html=1;rounded=0;exitX=0.541;exitY=-0.107;exitDx=0;exitDy=0;exitPerimeter=0;entryX=0.581;entryY=1.016;entryDx=0;entryDy=0;entryPerimeter=0;" parent="1" source="JxlkaKrIeEIBKMhmb0Ot-1" target="JxlkaKrIeEIBKMhmb0Ot-30" edge="1">
          <mxGeometry width="50" height="50" relative="1" as="geometry">
            <mxPoint x="310" y="310" as="sourcePoint" />
            <mxPoint x="289.65999999999997" y="270" as="targetPoint" />
          </mxGeometry>
        </mxCell>
        <mxCell id="JxlkaKrIeEIBKMhmb0Ot-38" value="web socket" style="rounded=0;whiteSpace=wrap;html=1;" parent="1" vertex="1">
          <mxGeometry x="140" y="150" width="120" height="20" as="geometry" />
        </mxCell>
        <mxCell id="JxlkaKrIeEIBKMhmb0Ot-39" value="http trigger" style="rounded=0;whiteSpace=wrap;html=1;" parent="1" vertex="1">
          <mxGeometry x="140" y="280" width="120" height="20" as="geometry" />
        </mxCell>
        <mxCell id="LG0gamAI-7Yihom5rvxm-4" value="&lt;div align=&quot;left&quot;&gt;OCPP messages are always arrays:&lt;br&gt;&lt;/div&gt;&lt;div align=&quot;left&quot;&gt;[message type, message Id, message Action, {payload}]&lt;br&gt;&lt;/div&gt;&lt;br&gt;&lt;br&gt;&lt;div&gt;Depending on the item at index[2]: message Action&lt;/div&gt;&lt;div&gt;we determine how to handle the message.&lt;br&gt;Each case needs to perform different actions on different tables from the database&lt;br&gt;&lt;br&gt;The messages are handled by the function @Message.&lt;/div&gt;&lt;div&gt;The problem is that with function binding, we can only perform one query to CosmosDB.&lt;br&gt;&lt;br&gt;The idea is to create a separate Functions App, with functions for each CRUD operations which we need.&lt;br&gt;Then, from the @Message function, we can use an HTTP Client to asynchronously&lt;br&gt;call the said Azure functions which handles the DB.&lt;br&gt;&lt;/div&gt;" style="rounded=0;whiteSpace=wrap;html=1;align=left;" parent="1" vertex="1">
          <mxGeometry x="390" y="50" width="450" height="250" as="geometry" />
        </mxCell>
        <mxCell id="FRaiA7bLo_Tnk13MHtqR-1" value="&lt;div&gt;AZURE Functions&amp;nbsp;&lt;/div&gt;&lt;div&gt;All in One&lt;br&gt;&lt;/div&gt;" style="rounded=0;whiteSpace=wrap;html=1;fillColor=#ffe6cc;strokeColor=#d79b00;" vertex="1" parent="1">
          <mxGeometry x="30" y="750" width="330" height="50" as="geometry" />
        </mxCell>
        <mxCell id="FRaiA7bLo_Tnk13MHtqR-2" value="Central" style="rounded=0;whiteSpace=wrap;html=1;fillColor=#d5e8d4;strokeColor=#82b366;" vertex="1" parent="1">
          <mxGeometry x="30" y="795" width="330" height="30" as="geometry" />
        </mxCell>
        <mxCell id="FRaiA7bLo_Tnk13MHtqR-3" value="" style="rounded=0;whiteSpace=wrap;html=1;" vertex="1" parent="1">
          <mxGeometry x="30" y="825" width="330" height="370" as="geometry" />
        </mxCell>
        <mxCell id="FRaiA7bLo_Tnk13MHtqR-4" value="@Connect" style="rounded=0;whiteSpace=wrap;html=1;fillColor=#e1d5e7;strokeColor=#9673a6;" vertex="1" parent="1">
          <mxGeometry x="145" y="840" width="130" height="20" as="geometry" />
        </mxCell>
        <mxCell id="FRaiA7bLo_Tnk13MHtqR-5" value="@Disconnected" style="rounded=0;whiteSpace=wrap;html=1;fillColor=#e1d5e7;strokeColor=#9673a6;" vertex="1" parent="1">
          <mxGeometry x="145" y="870" width="130" height="20" as="geometry" />
        </mxCell>
        <mxCell id="FRaiA7bLo_Tnk13MHtqR-6" value="@Message" style="rounded=0;whiteSpace=wrap;html=1;fillColor=#fff2cc;strokeColor=#d6b656;" vertex="1" parent="1">
          <mxGeometry x="145" y="910" width="130" height="20" as="geometry" />
        </mxCell>
        <mxCell id="FRaiA7bLo_Tnk13MHtqR-22" style="edgeStyle=orthogonalEdgeStyle;rounded=0;orthogonalLoop=1;jettySize=auto;html=1;startArrow=classic;startFill=1;" edge="1" parent="1" source="FRaiA7bLo_Tnk13MHtqR-7" target="FRaiA7bLo_Tnk13MHtqR-20">
          <mxGeometry relative="1" as="geometry" />
        </mxCell>
        <mxCell id="FRaiA7bLo_Tnk13MHtqR-7" value="handle message" style="rounded=0;whiteSpace=wrap;html=1;" vertex="1" parent="1">
          <mxGeometry x="145" y="930" width="130" height="60" as="geometry" />
        </mxCell>
        <mxCell id="FRaiA7bLo_Tnk13MHtqR-8" value="@Table1 querry1" style="rounded=0;whiteSpace=wrap;html=1;fillColor=#fff2cc;strokeColor=#d6b656;" vertex="1" parent="1">
          <mxGeometry x="145" y="1000" width="130" height="20" as="geometry" />
        </mxCell>
        <mxCell id="FRaiA7bLo_Tnk13MHtqR-9" value="@Table1 querry2" style="rounded=0;whiteSpace=wrap;html=1;fillColor=#fff2cc;strokeColor=#d6b656;" vertex="1" parent="1">
          <mxGeometry x="146" y="1030" width="130" height="20" as="geometry" />
        </mxCell>
        <mxCell id="FRaiA7bLo_Tnk13MHtqR-10" value="@Table2 querry1" style="rounded=0;whiteSpace=wrap;html=1;fillColor=#fff2cc;strokeColor=#d6b656;" vertex="1" parent="1">
          <mxGeometry x="146" y="1060" width="130" height="20" as="geometry" />
        </mxCell>
        <mxCell id="FRaiA7bLo_Tnk13MHtqR-11" value="@Table2 querry2" style="rounded=0;whiteSpace=wrap;html=1;fillColor=#fff2cc;strokeColor=#d6b656;" vertex="1" parent="1">
          <mxGeometry x="146" y="1090" width="130" height="20" as="geometry" />
        </mxCell>
        <mxCell id="FRaiA7bLo_Tnk13MHtqR-12" value="&lt;div&gt;Cosmos DB&lt;/div&gt;&lt;div&gt;serverless&lt;br&gt;&lt;/div&gt;" style="shape=cylinder3;whiteSpace=wrap;html=1;boundedLbl=1;backgroundOutline=1;size=15;fillColor=#dae8fc;strokeColor=#6c8ebf;" vertex="1" parent="1">
          <mxGeometry x="380" y="1020" width="110" height="80" as="geometry" />
        </mxCell>
        <mxCell id="FRaiA7bLo_Tnk13MHtqR-13" value="" style="shape=flexArrow;endArrow=classic;startArrow=classic;html=1;rounded=0;exitX=0.988;exitY=0.614;exitDx=0;exitDy=0;exitPerimeter=0;entryX=-0.011;entryY=0.285;entryDx=0;entryDy=0;entryPerimeter=0;width=4.166666666666667;startSize=2.2888888888888888;startWidth=5.401234567901234;endSize=1.8083333333333331;endWidth=8.287037037037036;" edge="1" parent="1" source="FRaiA7bLo_Tnk13MHtqR-8" target="FRaiA7bLo_Tnk13MHtqR-12">
          <mxGeometry width="100" height="100" relative="1" as="geometry">
            <mxPoint x="300" y="1060" as="sourcePoint" />
            <mxPoint x="400" y="960" as="targetPoint" />
          </mxGeometry>
        </mxCell>
        <mxCell id="FRaiA7bLo_Tnk13MHtqR-14" value="" style="shape=flexArrow;endArrow=classic;startArrow=classic;html=1;rounded=0;entryX=-0.004;entryY=0.442;entryDx=0;entryDy=0;entryPerimeter=0;width=4.166666666666667;startSize=2.2888888888888888;startWidth=5.401234567901234;endSize=1.8083333333333331;endWidth=8.287037037037036;exitX=0.987;exitY=0.489;exitDx=0;exitDy=0;exitPerimeter=0;" edge="1" parent="1" source="FRaiA7bLo_Tnk13MHtqR-9" target="FRaiA7bLo_Tnk13MHtqR-12">
          <mxGeometry width="100" height="100" relative="1" as="geometry">
            <mxPoint x="280" y="1040" as="sourcePoint" />
            <mxPoint x="380" y="1068" as="targetPoint" />
          </mxGeometry>
        </mxCell>
        <mxCell id="FRaiA7bLo_Tnk13MHtqR-15" value="" style="shape=flexArrow;endArrow=classic;startArrow=classic;html=1;rounded=0;entryX=-0.009;entryY=0.601;entryDx=0;entryDy=0;entryPerimeter=0;width=4.166666666666667;startSize=2.2888888888888888;startWidth=5.401234567901234;endSize=1.8083333333333331;endWidth=8.287037037037036;exitX=1;exitY=0.5;exitDx=0;exitDy=0;" edge="1" parent="1" source="FRaiA7bLo_Tnk13MHtqR-10" target="FRaiA7bLo_Tnk13MHtqR-12">
          <mxGeometry width="100" height="100" relative="1" as="geometry">
            <mxPoint x="310" y="1067.857142857143" as="sourcePoint" />
            <mxPoint x="344" y="1080" as="targetPoint" />
          </mxGeometry>
        </mxCell>
        <mxCell id="FRaiA7bLo_Tnk13MHtqR-17" value="" style="shape=flexArrow;endArrow=classic;startArrow=classic;html=1;rounded=0;width=4.166666666666667;startSize=2.2888888888888888;startWidth=5.401234567901234;endSize=1.8083333333333331;endWidth=8.287037037037036;exitX=1;exitY=0.5;exitDx=0;exitDy=0;" edge="1" parent="1" source="FRaiA7bLo_Tnk13MHtqR-11">
          <mxGeometry width="100" height="100" relative="1" as="geometry">
            <mxPoint x="286" y="1080" as="sourcePoint" />
            <mxPoint x="380" y="1080" as="targetPoint" />
          </mxGeometry>
        </mxCell>
        <mxCell id="FRaiA7bLo_Tnk13MHtqR-20" value="condition" style="rounded=0;whiteSpace=wrap;html=1;" vertex="1" parent="1">
          <mxGeometry x="50" y="1010" width="70" height="80" as="geometry" />
        </mxCell>
        <mxCell id="FRaiA7bLo_Tnk13MHtqR-24" value="" style="shape=flexArrow;endArrow=classic;startArrow=classic;html=1;rounded=0;exitX=0.988;exitY=0.614;exitDx=0;exitDy=0;exitPerimeter=0;entryX=0;entryY=0.5;entryDx=0;entryDy=0;width=4.166666666666667;startSize=2.2888888888888888;startWidth=5.401234567901234;endSize=1.8083333333333331;endWidth=8.287037037037036;" edge="1" parent="1" target="FRaiA7bLo_Tnk13MHtqR-8">
          <mxGeometry width="100" height="100" relative="1" as="geometry">
            <mxPoint x="120" y="1024.5" as="sourcePoint" />
            <mxPoint x="226" y="1055.5" as="targetPoint" />
          </mxGeometry>
        </mxCell>
        <mxCell id="FRaiA7bLo_Tnk13MHtqR-26" value="" style="shape=flexArrow;endArrow=classic;startArrow=classic;html=1;rounded=0;exitX=1;exitY=0.5;exitDx=0;exitDy=0;entryX=0;entryY=0.5;entryDx=0;entryDy=0;width=4.166666666666667;startSize=2.2888888888888888;startWidth=5.401234567901234;endSize=1.8083333333333331;endWidth=8.287037037037036;" edge="1" parent="1" source="FRaiA7bLo_Tnk13MHtqR-20" target="FRaiA7bLo_Tnk13MHtqR-9">
          <mxGeometry width="100" height="100" relative="1" as="geometry">
            <mxPoint x="130" y="1034.5" as="sourcePoint" />
            <mxPoint x="155" y="1020" as="targetPoint" />
          </mxGeometry>
        </mxCell>
        <mxCell id="FRaiA7bLo_Tnk13MHtqR-27" value="" style="shape=flexArrow;endArrow=classic;startArrow=classic;html=1;rounded=0;exitX=1;exitY=0.75;exitDx=0;exitDy=0;entryX=0;entryY=0.5;entryDx=0;entryDy=0;width=4.166666666666667;startSize=2.2888888888888888;startWidth=5.401234567901234;endSize=1.8083333333333331;endWidth=8.287037037037036;" edge="1" parent="1" source="FRaiA7bLo_Tnk13MHtqR-20" target="FRaiA7bLo_Tnk13MHtqR-10">
          <mxGeometry width="100" height="100" relative="1" as="geometry">
            <mxPoint x="130" y="1045" as="sourcePoint" />
            <mxPoint x="156" y="1050" as="targetPoint" />
          </mxGeometry>
        </mxCell>
        <mxCell id="FRaiA7bLo_Tnk13MHtqR-28" value="" style="shape=flexArrow;endArrow=classic;startArrow=classic;html=1;rounded=0;exitX=1.008;exitY=0.94;exitDx=0;exitDy=0;entryX=0;entryY=0.5;entryDx=0;entryDy=0;width=4.166666666666667;startSize=2.2888888888888888;startWidth=5.401234567901234;endSize=1.8083333333333331;endWidth=8.287037037037036;exitPerimeter=0;" edge="1" parent="1" source="FRaiA7bLo_Tnk13MHtqR-20" target="FRaiA7bLo_Tnk13MHtqR-11">
          <mxGeometry width="100" height="100" relative="1" as="geometry">
            <mxPoint x="130" y="1080" as="sourcePoint" />
            <mxPoint x="156" y="1080" as="targetPoint" />
          </mxGeometry>
        </mxCell>
      </root>
    </mxGraphModel>
  </diagram>
</mxfile>
